HIERARCHY
ROOT Hips
{
	OFFSET 0.000000 0.000000 0.000000
	CHANNELS 6 Xposition Yposition Zposition Xrotation Yrotation Zrotation
	JOINT LeftUpLeg_virtual
	{
		OFFSET 0.000000 0.000000 0.000000
		CHANNELS 3 Xrotation Yrotation Zrotation
		JOINT LeftUpLeg
		{
			OFFSET 15.427100 -6.655098 0.678600
			CHANNELS 3 Xrotation Yrotation Zrotation
			JOINT LeftLeg
			{
				OFFSET 4.081073 -39.591068 13.024000
				CHANNELS 3 Xrotation Yrotation Zrotation
				JOINT LeftFoot
				{
					OFFSET -4.081074 -37.707932 -15.979700
					CHANNELS 3 Xrotation Yrotation Zrotation
					JOINT LeftToeBase
					{
						OFFSET 5.346399 -15.068900 20.645000
						CHANNELS 3 Xrotation Yrotation Zrotation
						JOINT LeftToe_End
						{
							OFFSET 2.754700 0.931300 11.300900
							CHANNELS 3 Xrotation Yrotation Zrotation
							End Site
							{
								OFFSET 0 0 0
							}
						}
					}
				}
			}
		}
	}
	JOINT RightUpLeg_virtual
	{
		OFFSET 0.000000 0.000000 0.000000
		CHANNELS 3 Xrotation Yrotation Zrotation
		JOINT RightUpLeg
		{
			OFFSET -15.569500 -6.655098 0.678600
			CHANNELS 3 Xrotation Yrotation Zrotation
			JOINT RightLeg
			{
				OFFSET -4.081825 -39.591045 13.023800
				CHANNELS 3 Xrotation Yrotation Zrotation
				JOINT RightFoot
				{
					OFFSET 4.081824 -37.707954 -15.979600
					CHANNELS 3 Xrotation Yrotation Zrotation
					JOINT RightToeBase
					{
						OFFSET -5.346400 -15.068900 20.645000
						CHANNELS 3 Xrotation Yrotation Zrotation
						JOINT RightToe_End
						{
							OFFSET -2.754700 0.931300 11.300900
							CHANNELS 3 Xrotation Yrotation Zrotation
							End Site
							{
								OFFSET 0 0 0
							}
						}
					}
				}
			}
		}
	}
	JOINT Spine_virtual
	{
		OFFSET 0.000000 0.000000 0.000000
		CHANNELS 3 Xrotation Yrotation Zrotation
		JOINT Spine
		{
			OFFSET -0.279200 12.230698 -2.892100
			CHANNELS 3 Xrotation Yrotation Zrotation
			JOINT Spine1
			{
				OFFSET -0.232667 10.192268 -1.242267
				CHANNELS 3 Xrotation Yrotation Zrotation
				JOINT Spine1_split
				{
					OFFSET -0.232667 10.192268 -1.242267
					CHANNELS 3 Xrotation Yrotation Zrotation
					JOINT Spine2
					{
						OFFSET -0.232667 10.192268 -1.242267
						CHANNELS 3 Xrotation Yrotation Zrotation
						JOINT Neck_virtual
						{
							OFFSET 0.000000 0.000000 0.000000
							CHANNELS 3 Xrotation Yrotation Zrotation
							JOINT Neck
							{
								OFFSET -0.418800 17.814194 8.416900
								CHANNELS 3 Xrotation Yrotation Zrotation
								JOINT Head
								{
									OFFSET 0.000000 7.031097 3.806800
									CHANNELS 3 Xrotation Yrotation Zrotation
									JOINT HeadTop_End
									{
										OFFSET 0.000000 24.646606 12.978600
										CHANNELS 3 Xrotation Yrotation Zrotation
										End Site
										{
											OFFSET 0 0 0
										}
									}
								}
							}
						}
						JOINT LeftShoulder_virtual
						{
							OFFSET 0.000000 0.000000 0.000000
							CHANNELS 3 Xrotation Yrotation Zrotation
							JOINT LeftShoulder
							{
								OFFSET 8.476499 7.247704 -3.868750
								CHANNELS 3 Xrotation Yrotation Zrotation
								JOINT LeftShoulder_split
								{
									OFFSET 8.476499 7.247704 -3.868750
									CHANNELS 3 Xrotation Yrotation Zrotation
									JOINT LeftArm
									{
										OFFSET 9.308998 -2.777710 0.208600
										CHANNELS 3 Xrotation Yrotation Zrotation
										JOINT LeftForeArm
										{
											OFFSET 29.972298 0.000000 0.000000
											CHANNELS 3 Xrotation Yrotation Zrotation
											JOINT LeftHand
											{
												OFFSET 26.026505 0.000000 0.000000
												CHANNELS 3 Xrotation Yrotation Zrotation
												End Site
												{
													OFFSET 0 0 0
												}
											}
										}
									}
								}
							}
						}
						JOINT RightShoulder_virtual
						{
							OFFSET 0.000000 0.000000 0.000000
							CHANNELS 3 Xrotation Yrotation Zrotation
							JOINT RightShoulder
							{
								OFFSET -7.570500 7.247704 -3.868750
								CHANNELS 3 Xrotation Yrotation Zrotation
								JOINT RightShoulder_split
								{
									OFFSET -7.570500 7.247704 -3.868750
									CHANNELS 3 Xrotation Yrotation Zrotation
									JOINT RightArm
									{
										OFFSET -9.308998 -2.777710 0.208500
										CHANNELS 3 Xrotation Yrotation Zrotation
										JOINT RightForeArm
										{
											OFFSET -29.972300 0.000000 0.000000
											CHANNELS 3 Xrotation Yrotation Zrotation
											JOINT RightHand
											{
												OFFSET -26.026505 0.000000 0.000000
												CHANNELS 3 Xrotation Yrotation Zrotation
												End Site
												{
													OFFSET 0 0 0
												}
											}
										}
									}
								}
							}
						}
					}
				}
			}
		}
	}
}
MOTION
Frames: 4
Frame Time: 0.03333333
25.060251 87.335991 -38.000427 0.000000 0.000000 0.000000 126.187841 -63.386765 129.133264 0.361172 43.218613 7.677530 7.316029 -7.916086 -0.139981 -14.637046 28.935789 -22.639196 4.470470 -11.019815 -1.679064 0.000000 0.000000 0.000000 128.486937 -62.002019 130.934030 -53.525631 26.254977 10.132655 21.289179 -10.845816 -2.207071 0.444694 3.457248 29.710783 4.704651 2.755663 -14.935660 0.000000 0.000000 0.000000 124.990003 -62.996426 126.818854 33.255580 5.013101 9.369153 -7.821974 -0.202233 -0.254060 0.105953 0.057838 0.093004 0.000000 0.000000 0.000000 -8.103255 0.750138 1.727768 -3.907187 21.477579 6.267140 -15.627662 -34.840914 -17.632396 0.000000 0.000000 0.000000 -6.955629 -1.514467 1.132363 2.786771 -12.499938 36.411865 1.594338 -1.089680 0.470222 -63.556905 -2.949956 -49.278247 -42.729189 -58.869223 -36.173484 0.000000 0.000000 0.000000 -9.214332 -1.691879 1.123355 11.853985 -2.839980 -10.324708 -8.729120 0.648300 -2.435962 -12.592430 6.204296 68.035924 -1.109601 22.895861 15.645184 0.000000 0.000000 0.000000 
24.926128 87.580589 -38.291847 0.000000 0.000000 0.000000 126.153239 -63.778271 129.160284 0.855938 43.148180 7.271463 6.581675 -7.775032 -0.314498 -14.012742 28.723848 -22.650205 4.121048 -11.072280 -1.931978 0.000000 0.000000 0.000000 128.385563 -62.410881 130.883568 -52.895259 26.407656 9.980955 21.079086 -10.834437 -2.165088 0.317266 3.560543 29.531545 4.726745 2.766085 -14.961091 0.000000 0.000000 0.000000 125.049876 -63.440955 127.007477 33.069245 5.002536 9.206956 -7.682754 -0.215837 -0.105575 0.092148 0.114416 0.082694 0.000000 0.000000 0.000000 -8.060243 0.748456 1.789644 -4.445348 20.512793 7.351664 -15.824676 -34.753871 -17.458392 0.000000 0.000000 0.000000 -6.713693 -1.575696 1.343221 2.487691 -11.634315 35.822454 1.566180 -1.284034 0.658723 -63.831335 -2.564604 -49.797874 -41.489028 -58.820606 -34.890351 0.000000 0.000000 0.000000 -9.070777 -1.732750 1.222092 11.820703 -2.862271 -10.419143 -8.905346 0.609636 -2.430494 -12.780581 6.362765 68.733703 -1.348337 22.548772 15.493847 0.000000 0.000000 0.000000 
24.793446 87.800285 -38.556961 0.000000 0.000000 0.000000 126.078585 -64.173705 129.206525 1.383632 43.016668 6.808170 5.877847 -7.634873 -0.482329 -13.408936 28.475967 -22.660338 3.792724 -11.116132 -2.169655 0.000000 0.000000 0.000000 128.228906 -62.821751 130.830580 -52.322169 26.558296 9.797287 20.896595 -10.802875 -2.132478 0.247525 3.671981 29.385837 4.700395 2.770630 -14.983610 0.000000 0.000000 0.000000 125.073700 -63.865274 127.224854 32.878318 4.998985 9.036433 -7.526103 -0.197854 0.023257 0.086832 0.151749 0.070728 0.000000 0.000000 0.000000 -7.992998 0.776587 1.838670 -4.783638 19.622445 8.245174 -16.129811 -34.572102 -17.509004 0.000000 0.000000 0.000000 -6.458037 -1.606872 1.524335 2.235777 -10.906854 35.131044 1.612714 -1.373150 0.843868 -64.215294 -2.271717 -50.311327 -40.380270 -58.806774 -33.786579 0.000000 0.000000 0.000000 -8.913376 -1.740845 1.310713 11.803726 -2.849531 -10.513170 -9.128638 0.548359 -2.396224 -12.817472 6.369779 69.435983 -1.609699 22.460353 15.382134 0.000000 0.000000 0.000000 
24.660145 87.996437 -38.787674 0.000000 0.000000 0.000000 126.013070 -64.557964 129.310425 1.933130 42.854338 6.305611 5.217931 -7.486210 -0.635262 -12.832572 28.208224 -22.655937 3.497796 -11.150385 -2.394282 0.000000 0.000000 0.000000 128.038467 -63.224643 130.780446 -51.781672 26.693206 9.601706 20.731702 -10.767208 -2.115490 0.197752 3.759401 29.269461 4.647968 2.763921 -14.992579 0.000000 0.000000 0.000000 125.077648 -64.260114 127.473542 32.644985 5.006647 8.871790 -7.348839 -0.151851 0.128422 0.088396 0.170026 0.062050 0.000000 0.000000 0.000000 -7.887471 0.831202 1.874780 -4.954460 18.819451 8.936516 -16.517382 -34.277714 -17.776281 0.000000 0.000000 0.000000 -6.196714 -1.607491 1.668856 2.038544 -10.359089 34.366326 1.699687 -1.384237 1.004772 -64.604355 -2.140160 -50.773755 -39.439162 -58.848896 -32.915249 0.000000 0.000000 0.000000 -8.742355 -1.718373 1.389423 11.795586 -2.810704 -10.608523 -9.367001 0.514263 -2.346064 -12.693790 6.231846 70.130825 -1.889342 22.651416 15.318984 0.000000 0.000000 0.000000 
